<?xml version="1.0" standalone="no"?><!DOCTYPE svg PUBLIC "-//W3C//DTD SVG 1.1//EN" "http://www.w3.org/Graphics/SVG/1.1/DTD/svg11.dtd"><svg t="1685516105849" class="icon" viewBox="0 0 1025 1024" version="1.1" xmlns="http://www.w3.org/2000/svg" p-id="6964" xmlns:xlink="http://www.w3.org/1999/xlink" width="256.25" height="256"><path d="M1021.016 440.784c-8.264-27.136-30.016-43.152-59.28-43.352-24.16-0.168-48.32-0.152-72.48 0.064-4.616 0.04-6.488-1.248-8.208-5.84-6.992-18.68-14.552-37.16-22.368-55.512-1.64-3.848-1.696-5.912 1.384-8.936 17.248-16.912 34.28-34.056 51.32-51.176 26.832-26.952 26.896-65.92 0.096-92.856-22.576-22.696-45.2-45.328-67.904-67.896-27.176-27.024-66.056-26.832-93.296 0.368-16.36 16.344-32.784 32.632-48.984 49.136-2.824 2.872-4.84 2.872-8.424 1.304-20.168-8.808-40.432-17.408-60.84-25.632-3.92-1.584-5.32-3.176-5.312-7.4 0.04-24.984 0.488-49.992-0.568-74.944-1.248-29.704-20.768-51.184-49.976-57.064-0.768-0.152-1.472-0.656-2.2-1-39.256 0-78.512 0-117.776 0-12.496 2.944-24.528 6.856-34.704 15.184-15.8 12.928-24.272 29.288-24.184 49.92 0.096 22.512-0.104 45.032 0.128 67.544 0.04 4.288-1.488 5.944-5.344 7.456-19.344 7.6-38.592 15.448-57.728 23.56-3.632 1.544-5.752 1.352-8.512-1.472-15.304-15.656-30.744-31.176-46.248-46.64-27.312-27.248-65.976-27.328-93.272-0.16-22.984 22.88-45.896 45.824-68.736 68.848-25.112 25.312-25.272 64.776-0.304 90.192 15.92 16.208 32.104 32.16 48.176 48.216 2.048 2.048 4.08 3.616 2.016 7.248-11.648 20.504-20.608 42.16-27.056 64.856-0.216 0.768-0.64 1.48-1.136 2.592-20 0-40.024-0.152-60.04 0.072-8.848 0.096-17.952-0.256-26.472 1.68-27.624 6.28-45.152 23.424-51.712 51.296C0.912 451.184 0.368 451.848 0 452.544c0 39.256 0 78.512 0 117.776 3.272 11.984 7.608 23.44 16.136 32.848 14.064 15.512 31.384 23.64 52.488 23.56 22.928-0.096 45.864 0.096 68.784-0.12 4.296-0.04 6.104 1.248 7.12 5.464 4.688 19.4 13.472 37.112 23.232 54.384 1.312 2.328 2.6 4.672 4.112 7.384-1.6 1.68-3.104 3.328-4.68 4.904-16.352 16.368-32.76 32.672-49.064 49.088-25.728 25.912-25.976 65.08-0.336 91.088 23.2 23.536 46.576 46.912 70.104 70.12 25.832 25.472 64.736 25.368 90.576-0.12 17.648-17.408 35.144-34.968 52.544-52.624 2.776-2.816 4.728-2.976 8.384-1.392 17.752 7.68 35.664 15 53.648 22.12 3.4 1.344 4.864 2.68 4.816 6.504-0.296 22.304-0.032 44.624-0.504 66.92-0.824 38.968 19.08 64.472 57.28 72.72 0.568 0.12 1.056 0.584 1.584 0.888 39.256 0 78.512 0 117.776 0 10.28-2.944 20.44-6.056 28.92-13.104 14.056-11.688 22.616-26.52 23.168-44.744 0.832-27.024 0.632-54.096 0.424-81.136-0.04-5.448 2.088-6.992 6.752-8.776 19.952-7.624 39.672-15.864 61.584-24.736 8.352 8.688 18.264 19.168 28.36 29.456 8.968 9.136 18.12 18.088 27.24 27.072 27.112 26.712 65.952 26.664 92.912-0.16 22.84-22.72 45.632-45.488 68.368-68.312 26.248-26.352 26.304-65.656 0.152-91.976-18.048-18.16-36.128-36.304-54.352-54.296-2.84-2.8-2.896-4.768-1.28-8.4 7.784-17.472 15.304-35.08 22.36-52.856 1.688-4.256 3.592-5.496 7.92-5.464 24.368 0.184 48.736 0.12 73.104 0.08 34.472-0.048 56.928-18.864 63.336-52.968 0.144-0.76 0.672-1.448 1.024-2.168 0-40.08 0-80.168 0-120.248C1023.008 447.792 1022.08 444.272 1021.016 440.784zM955.432 565.56c-31.808-0.304-63.624-0.16-95.44-0.136-17.08 0.008-28.216 8.144-32.584 24.664-7.952 30.088-19.84 58.464-35.656 85.256-7.4 12.544-6.032 24.528 2.264 36.424 15.728 22.56 36.384 40.504 55.352 60.032 6.896 7.096 14 13.984 21.448 21.408-1.6 1.856-2.8 3.456-4.192 4.848-21.76 21.768-43.64 43.424-65.248 65.344-3.824 3.88-5.984 3.16-9.432-0.28-23.696-23.632-47.448-47.208-71.432-70.544-13.744-13.376-26.584-14.664-42.992-4.328-26.936 16.976-55.424 29.8-86.904 35.896-16.488 3.192-25.232 15.032-25.256 31.912-0.032 33.056-0.008 66.104-0.008 99.16 0 2.256 0 4.512 0 7.752-3.52 0-6.168 0-8.816 0-28.92 0-57.848 0.008-86.768-0.008-10.456-0.008-11.24-0.728-11.128-11.128 0.336-30.976 0.68-61.952 1.176-92.936 0.28-17.792-8.136-29.376-25.552-33.664-30.848-7.592-59.792-19.704-87.2-35.68-14.752-8.592-28.28-6.76-40.496 5.328-22.912 22.664-45.848 45.304-68.552 68.176-3.888 3.912-6.104 3.712-9.888-0.128-21.296-21.648-42.864-43.024-64.328-64.512-1.424-1.424-2.696-2.992-4.368-4.856 1.824-1.952 3.288-3.624 4.856-5.2 21.584-21.656 43.184-43.296 64.776-64.944 13.952-13.992 15.616-27.288 5.312-43.936-17.256-27.896-29.872-57.76-38.328-89.432-4.312-16.16-15.344-24.616-31.92-24.64-30.984-0.04-61.976-0.008-92.96-0.016-8.84 0-10.176-1.288-10.184-9.848-0.008-29.336-0.016-58.672 0-88.008 0-7.784 1.08-8.856 9.048-8.864 30.368-0.016 60.736 0 91.104-0.016 18.848-0.008 29.936-9.168 33.592-27.824 6.264-31.984 19.344-61.112 36.232-88.8 3.64-5.968 6.4-13.056 7.384-19.936 1.312-9.184-2.92-17.144-9.672-23.752-21.712-21.232-43.192-42.704-64.992-63.832-3.944-3.816-3.936-5.944-0.024-9.792 21.64-21.304 43.064-42.824 64.392-64.448 3.608-3.656 6.072-3.736 9.632-0.04 20.776 21.56 41.832 42.856 62.544 64.464 10.2 10.64 25.08 13.944 37.768 6.448 30.568-18.072 63.392-30.52 97.256-40.624 15.256-4.552 23.336-15.768 23.352-31.792 0.04-29.952 0.144-59.912-0.12-89.864-0.048-5.176 2.112-7.608 6.568-7.632 33.2-0.16 66.4-0.088 99.992-0.088 0.112 2.248 0.264 4.256 0.288 6.264 0.416 30.56 0.744 61.12 1.248 91.68 0.304 18.392 8.448 28.632 26.128 33.368 32.64 8.752 63.552 21.52 92.312 39.4 14.552 9.04 28.8 7.256 40.968-4.936 21.896-21.928 43.72-43.92 65.584-65.88 1.592-1.6 3.256-3.12 5.328-5.096 1.712 1.472 3.304 2.672 4.704 4.072 21.64 21.6 43.152 43.328 64.96 64.752 4 3.928 3.704 6.128-0.104 9.856-22.44 21.96-44.6 44.208-66.96 66.256-13.592 13.4-15.656 26.56-6.128 42.88 16.424 28.144 28.296 58.088 35.912 89.752 3.888 16.184 15.328 25.104 32.16 25.12 31.192 0.032 62.392 0.008 93.584 0.008 2.256 0 4.512 0 7.456 0 0.152 2.536 0.392 4.72 0.392 6.904 0.024 30.784-0.128 61.56 0.144 92.344C963.096 563.848 961.48 565.616 955.432 565.56z" p-id="6965"></path><path d="M514.568 297.904c-114.12-0.032-207.096 92.888-207.232 207.112-0.136 114.568 92.8 207.8 207.16 207.8 114.192 0 207.016-92.768 207.216-207.096C721.92 391.176 628.984 297.936 514.568 297.904zM513.904 651.392c-81.072-0.664-146.424-66.776-145.584-147.288 0.84-80.544 66.824-145.272 147.488-144.672 80.76 0.6 145.616 66.768 144.888 147.816C659.984 586.84 593.584 652.048 513.904 651.392z" p-id="6966"></path></svg>