<?xml version="1.0" standalone="no"?><!DOCTYPE svg PUBLIC "-//W3C//DTD SVG 1.1//EN" "http://www.w3.org/Graphics/SVG/1.1/DTD/svg11.dtd"><svg t="1685512573253" class="icon" viewBox="0 0 1024 1024" version="1.1" xmlns="http://www.w3.org/2000/svg" p-id="6720" xmlns:xlink="http://www.w3.org/1999/xlink" width="256" height="256"><path d="M1004 1020c-1.6 0-3.2 0-4-0.8l-132-36.8c-63.2-17.6-124-43.2-180-77.6-12.8 12.8-24.8 24-36.8 33.6-4.8 4-11.2 4-16.8 1.6-5.6-3.2-8.8-8.8-8.8-15.2 0.8-17.6 3.2-36.8 6.4-57.6-10.4-7.2-20.8-15.2-30.4-24-8 8-16 14.4-24 20-4.8 4-11.2 4-16.8 1.6-5.6-3.2-8.8-8.8-8.8-15.2 0.8-15.2 2.4-30.4 4.8-47.2L546.4 792l-20.8-20.8c-7.2 6.4-14.4 12.8-20.8 17.6-4.8 4-11.2 4-16.8 1.6-5.6-3.2-8.8-8.8-8.8-15.2 0.8-15.2 2.4-30.4 4.8-46.4l-32-32c-7.2 6.4-14.4 12.8-20.8 17.6-4.8 4-11.2 4-16.8 1.6-5.6-3.2-8.8-8.8-8.8-15.2 0.8-15.2 2.4-30.4 4.8-46.4l-32-32c-7.2 6.4-14.4 12.8-20.8 17.6-4.8 4-11.2 4-16.8 1.6-5.6-3.2-8.8-8.8-8.8-15.2 0.8-15.2 2.4-30.4 4.8-46.4L204 453.6c-6.4-6.4-6.4-16 0-22.4l227.2-227.2c6.4-6.4 16-6.4 22.4 0l51.2 51.2c7.2-6.4 14.4-12.8 20.8-17.6 4.8-4 11.2-4 16.8-1.6 5.6 3.2 8.8 8.8 8.8 15.2-0.8 15.2-2.4 30.4-4.8 46.4l32 32c7.2-6.4 14.4-12.8 20.8-17.6 4.8-4 11.2-4 16.8-1.6 5.6 3.2 8.8 8.8 8.8 15.2-0.8 15.2-2.4 30.4-4.8 46.4l32 32c7.2-6.4 14.4-12.8 20.8-17.6 4.8-4 11.2-4 16.8-1.6 5.6 3.2 8.8 8.8 8.8 15.2-0.8 15.2-2.4 30.4-4.8 46.4l32 32c7.2-6.4 14.4-12.8 20.8-17.6 4.8-4 11.2-4 16.8-1.6 5.6 3.2 8.8 8.8 8.8 15.2-0.8 15.2-2.4 30.4-4.8 46.4l26.4 26.4 4.8 4.8c7.2-6.4 14.4-12.8 20.8-17.6 4.8-4 11.2-4 16.8-1.6 5.6 3.2 8.8 8.8 8.8 15.2-0.8 16-2.4 32.8-5.6 50.4 66.4 80 114.4 171.2 141.6 271.2l36.8 132c1.6 5.6 0 11.2-4 15.2-1.6 1.6-5.6 3.2-9.6 3.2z m-319.2-151.2c3.2 0 5.6 0.8 8.8 2.4 56.8 35.2 118.4 62.4 183.2 80.8l104.8 28.8-28.8-104.8c-27.2-98.4-74.4-187.2-140-264.8-3.2-4-4-8.8-3.2-12.8l2.4-14.4c-3.2 3.2-7.2 4.8-11.2 4.8-4 0-8.8-1.6-11.2-4.8-4.8-5.6-10.4-10.4-15.2-16l-32-32c-4-4-5.6-8.8-4.8-14.4 0.8-4 1.6-7.2 1.6-11.2-6.4 6.4-16 6.4-22.4 0l-48.8-48.8c-4-4-5.6-8.8-4.8-14.4 0.8-4 1.6-7.2 1.6-11.2-6.4 6.4-16 6.4-22.4 0l-50.4-48c-4-4-5.6-8.8-4.8-14.4 0.8-4 1.6-7.2 1.6-11.2-6.4 6.4-16 6.4-22.4 0l-48.8-48.8c-4-4-5.6-8.8-4.8-14.4 0.8-4 1.6-7.2 1.6-11.2-6.4 6.4-16 6.4-22.4 0l-50.4-50.4-204 204.8 124.8 124.8c4 4 5.6 8.8 4.8 14.4-0.8 4-1.6 7.2-1.6 11.2 6.4-6.4 16-6.4 22.4 0l48.8 48.8c4 4 5.6 8.8 4.8 14.4-0.8 4-1.6 7.2-1.6 11.2 6.4-6.4 16-6.4 22.4 0l48.8 48.8c4 4 5.6 8.8 4.8 14.4-0.8 4-1.6 7.2-1.6 11.2 6.4-6.4 16-6.4 22.4 0l32 32c5.6 5.6 10.4 10.4 16 15.2 4 4 5.6 8.8 4.8 14.4-0.8 4-1.6 8-1.6 12l1.6-1.6c5.6-5.6 15.2-6.4 21.6-0.8 15.2 12.8 32 25.6 48 37.6 4.8 4 8 9.6 6.4 16-1.6 8-3.2 15.2-4 23.2 4-4 8-8 12-12.8 2.4-6.4 6.4-8 11.2-8z" fill="#303C42" p-id="6721"></path><path d="M106.4 567.2h-1.6c-4.8-0.8-8.8-3.2-12-7.2L6.4 422.4c-4-6.4-3.2-14.4 2.4-20l180.8-180.8c3.2-3.2 7.2-4.8 11.2-4.8 4 0 8 1.6 11.2 4.8l14.4 14.4 9.6-9.6-14.4-14.4c-3.2-3.2-4.8-7.2-4.8-11.2 0-4 1.6-8 4.8-11.2L402.4 8.8C408 3.2 416 2.4 422.4 6.4L560 92.8c4 2.4 7.2 7.2 7.2 12 0.8 4.8-0.8 9.6-4.8 12.8L117.6 562.4c-3.2 3.2-7.2 4.8-11.2 4.8zM40 416l68.8 109.6 416-416L416 40 256 200l14.4 14.4c3.2 3.2 4.8 7.2 4.8 11.2 0 4-1.6 8-4.8 11.2l-32 32c-3.2 3.2-7.2 4.8-11.2 4.8-4 0-8-1.6-11.2-4.8l-14.4-14.4L40 416zM376.8 611.2c-1.6 0-3.2-0.8-4.8-1.6-3.2-2.4-4.8-7.2-1.6-11.2 113.6-159.2 151.2-296.8 152-298.4 0.8-4 5.6-7.2 9.6-5.6 4 0.8 7.2 5.6 5.6 9.6 0 1.6-38.4 141.6-154.4 303.2-1.6 3.2-4 4-6.4 4zM452.8 692c-1.6 0-3.2-0.8-4.8-1.6-3.2-2.4-4.8-7.2-1.6-11.2C560 520 597.6 382.4 598.4 380.8c0.8-4 5.6-7.2 9.6-5.6 4 0.8 7.2 5.6 5.6 9.6 0 1.6-38.4 141.6-154.4 303.2-1.6 3.2-4 4-6.4 4zM529.6 761.6c-1.6 0-3.2-0.8-4.8-1.6-3.2-2.4-4.8-7.2-1.6-11.2 113.6-159.2 151.2-296.8 152-298.4 0.8-4 5.6-7.2 9.6-5.6 4 0.8 7.2 5.6 5.6 9.6 0 1.6-38.4 141.6-154.4 303.2-1.6 3.2-4 4-6.4 4zM605.6 827.2c-1.6 0-3.2-0.8-4.8-1.6-3.2-2.4-4.8-7.2-1.6-11.2 113.6-159.2 151.2-296.8 152-298.4 0.8-4 5.6-7.2 9.6-5.6 4 0.8 7.2 5.6 5.6 9.6 0 1.6-38.4 141.6-154.4 303.2-0.8 3.2-3.2 4-6.4 4zM671.2 907.2c-1.6 0-3.2-0.8-4.8-1.6-3.2-2.4-4.8-7.2-1.6-11.2 113.6-159.2 151.2-296.8 152-298.4 0.8-4 5.6-7.2 9.6-5.6 4 0.8 7.2 5.6 5.6 9.6 0 1.6-38.4 141.6-154.4 303.2-0.8 3.2-4 4-6.4 4z" fill="#303C42" p-id="6722"></path></svg>