<?xml version="1.0" standalone="no"?><!DOCTYPE svg PUBLIC "-//W3C//DTD SVG 1.1//EN" "http://www.w3.org/Graphics/SVG/1.1/DTD/svg11.dtd"><svg t="1682424154552" class="icon" viewBox="0 0 1024 1024" version="1.1" xmlns="http://www.w3.org/2000/svg" p-id="26420" xmlns:xlink="http://www.w3.org/1999/xlink" width="256" height="256"><path d="M795.306667 648.533333l-242.346667 242.346667c-3.413333 3.413333-3.413333 6.826667-3.413333 13.653333v102.4c0 10.24 6.826667 17.066667 17.066666 17.066667h102.4c3.413333 0 10.24-3.413333 13.653334-3.413333l242.346666-242.346667-129.706666-129.706667zM1020.586667 651.946667l-102.4-102.4c-6.826667-6.826667-17.066667-6.826667-23.893334 0L819.2 624.64l126.293333 126.293333 71.68-71.68c6.826667-6.826667 6.826667-20.48 3.413334-27.306666zM733.866667 0H249.173333c-3.413333 0-3.413333 3.413333-6.826666 3.413333l-238.933334 238.933334s-3.413333 3.413333-3.413333 6.826666v655.36c0 10.24 6.826667 17.066667 17.066667 17.066667h477.866666c10.24 0 17.066667-6.826667 17.066667-17.066667 0-13.653333 6.826667-27.306667 13.653333-37.546666l218.453334-218.453334c3.413333-3.413333 3.413333-6.826667 3.413333-13.653333V17.066667c3.413333-10.24-3.413333-17.066667-13.653333-17.066667z m-443.733334 443.733333c10.24 0 17.066667 6.826667 17.066667 17.066667s-6.826667 17.066667-17.066667 17.066667h-204.8c-10.24 0-17.066667-6.826667-17.066666-17.066667s6.826667-17.066667 17.066666-17.066667h204.8zM238.933333 58.026667V238.933333H58.026667L238.933333 58.026667zM256 819.2h-170.666667c-10.24 0-17.066667-6.826667-17.066666-17.066667s6.826667-17.066667 17.066666-17.066666h170.666667c10.24 0 17.066667 6.826667 17.066667 17.066666s-6.826667 17.066667-17.066667 17.066667z m307.2-170.666667h-477.866667c-10.24 0-17.066667-6.826667-17.066666-17.066666s6.826667-17.066667 17.066666-17.066667h477.866667c10.24 0 17.066667 6.826667 17.066667 17.066667s-6.826667 17.066667-17.066667 17.066666z m-17.066667-273.066666v17.066666c0 10.24-6.826667 17.066667-17.066666 17.066667s-17.066667-6.826667-17.066667-17.066667V375.466667c-37.546667-3.413333-64.853333-27.306667-68.266667-54.613334 0-10.24 6.826667-17.066667 13.653334-17.066666 10.24-3.413333 20.48 3.413333 20.48 13.653333 0 10.24 13.653333 20.48 34.133333 23.893333V286.72c-27.306667-6.826667-68.266667-17.066667-68.266667-58.026667 0-30.72 27.306667-54.613333 68.266667-58.026666v-17.066667c0-10.24 6.826667-17.066667 17.066667-17.066667s17.066667 6.826667 17.066666 17.066667V170.666667c37.546667 3.413333 64.853333 27.306667 68.266667 54.613333 0 10.24-6.826667 17.066667-13.653333 17.066667-10.24 3.413333-20.48-3.413333-20.48-13.653334 0-10.24-13.653333-20.48-34.133334-23.893333v51.2c27.306667 6.826667 68.266667 17.066667 68.266667 58.026667 0 30.72-27.306667 54.613333-68.266667 61.44z" fill="" p-id="26421"></path><path d="M477.866667 228.693333c0 6.826667 6.826667 17.066667 34.133333 20.48V208.213333c-20.48 3.413333-34.133333 13.653333-34.133333 20.48zM546.133333 293.546667v44.373333c20.48-3.413333 34.133333-13.653333 34.133334-23.893333 0-3.413333-6.826667-13.653333-34.133334-20.48z" fill="" p-id="26422"></path></svg>