<?xml version="1.0" standalone="no"?><!DOCTYPE svg PUBLIC "-//W3C//DTD SVG 1.1//EN" "http://www.w3.org/Graphics/SVG/1.1/DTD/svg11.dtd"><svg t="1685512776157" class="icon" viewBox="0 0 1024 1024" version="1.1" xmlns="http://www.w3.org/2000/svg" p-id="17150" xmlns:xlink="http://www.w3.org/1999/xlink" width="256" height="256"><path d="M492.032 950.784c-17.408 0-33.792-6.656-46.08-18.944l-427.008-427.008c-12.288-12.288-18.944-28.672-18.944-46.08 0-17.408 6.656-33.792 18.944-46.08l320.512-320.512c12.288-12.288 28.672-18.944 46.08-18.944 17.408 0 33.792 6.656 46.08 18.944l109.568 109.568 104.96-104.96c12.288-12.288 28.672-18.944 46.08-18.944 17.408 0 33.792 6.656 46.08 18.944l266.752 266.752c12.288 12.288 18.944 28.672 18.944 46.08 0 17.408-6.656 33.792-18.944 46.08l-120.32 120.32-6.144-6.144-5.12 15.872c-3.584 10.752-8.192 18.944-14.848 25.6l-320.512 320.512c-12.288 12.288-28.672 18.944-46.08 18.944z m-106.496-807.424c-12.8 0-25.088 5.12-34.304 14.336l-266.752 266.752c-9.216 9.216-14.336 20.992-14.336 34.304 0 12.8 5.12 25.088 14.336 34.304l373.76 373.76c9.216 9.216 20.992 14.336 34.304 14.336 12.8 0 25.088-5.12 34.304-14.336l19.968-19.968-208.896-208.896c-3.072-3.072-3.072-8.704 0-11.776l26.624-26.624c1.536-1.536 3.584-2.56 6.144-2.56 2.048 0 4.608 1.024 6.144 2.56l208.896 208.896 55.808-55.808-189.952-189.952c-3.072-3.072-3.072-8.704 0-11.776l26.624-26.624c1.536-1.536 3.584-2.56 6.144-2.56 2.048 0 4.608 1.024 6.144 2.56l189.952 189.952 55.808-55.808-171.008-171.008c-3.072-3.072-3.072-8.704 0-11.776l26.624-26.624c1.536-1.536 3.584-2.56 6.144-2.56 2.048 0 4.608 1.024 6.144 2.56l171.008 171.008 19.968-19.968c9.216-9.216 14.336-20.992 14.336-34.304 0-12.8-5.12-25.088-14.336-34.304l-373.76-373.76c-10.752-9.216-23.04-14.336-35.84-14.336z m306.688 4.608c-12.8 0-25.088 5.12-34.304 14.336l-78.336 78.336 281.6 281.6 78.336-78.336c9.216-9.216 14.336-20.992 14.336-34.304s-5.12-25.088-14.336-34.304l-213.504-213.504c-9.216-8.704-20.992-13.824-33.792-13.824z" p-id="17151"></path></svg>