<?xml version="1.0" standalone="no"?><!DOCTYPE svg PUBLIC "-//W3C//DTD SVG 1.1//EN" "http://www.w3.org/Graphics/SVG/1.1/DTD/svg11.dtd"><svg t="1682424071926" class="icon" viewBox="0 0 1024 1024" version="1.1" xmlns="http://www.w3.org/2000/svg" p-id="22456" xmlns:xlink="http://www.w3.org/1999/xlink" width="256" height="256"><path d="M915.968 525.312l13.824-13.824c52.736-52.736 81.408-122.368 81.408-196.608s-28.672-143.872-81.408-196.608c-52.736-52.736-122.368-81.408-196.608-81.408s-143.872 29.184-196.608 81.408L512 143.36l-24.576-24.576C434.688 66.048 365.056 37.376 290.816 37.376S146.944 66.56 94.208 118.784C41.472 171.52 12.8 241.152 12.8 315.392S41.472 459.264 94.208 512L174.08 591.872l-6.656 6.656c-14.336 13.824-22.016 32.768-22.016 52.736s7.68 38.4 22.016 52.736c14.336 14.848 33.792 22.016 52.736 22.016h3.584c-1.024 19.968 6.656 40.448 21.504 55.808 14.336 14.848 33.792 22.016 52.736 22.016h3.072c-0.512 19.968 6.656 40.448 22.016 55.296 14.336 14.848 33.792 22.016 52.736 22.016h2.048c-0.512 19.968 6.656 40.448 22.016 55.296 14.336 14.848 33.792 22.016 52.736 22.016 19.456 0 38.4-7.168 52.736-22.528l2.048-2.048 31.744 24.064c17.92 16.896 41.472 25.6 64.512 25.6 23.552 0 47.616-8.704 65.536-26.624s27.136-41.472 27.648-64.512c23.552-0.512 46.592-9.728 62.464-26.624 17.92-17.92 26.624-40.96 27.136-64 23.552-0.512 46.592-9.216 64.512-26.112 16.896-16.896 26.624-39.936 27.136-64.512 23.04-0.512 46.08-9.216 64.512-26.624 17.408-17.92 27.136-40.96 27.136-66.048 0-24.576-9.728-48.128-27.136-65.536l-26.624-27.648z m-182.784-438.784c60.928 0 118.784 24.064 161.792 67.072 43.52 43.008 67.072 100.864 67.072 161.792 0 60.928-24.064 118.784-67.072 161.792L875.52 496.64l-180.736-205.312-1.024-1.024c-58.368-58.368-155.136 14.848-225.792 68.096-20.48 15.36-39.936 30.208-53.76 37.888-29.184 16.384-72.704 0.512-97.28-11.264l227.84-204.8-0.512-0.512 27.136-26.112c43.52-43.52 100.864-67.072 161.792-67.072zM196.096 675.84a33.9968 33.9968 0 0 1 0-48.128l7.168-6.656 48.128 48.128-6.656 6.656c-13.824 13.312-35.328 13.312-48.64 0z m77.824 77.824a33.9968 33.9968 0 0 1 0-48.128l6.656-6.656 48.128 48.128-6.656 6.656a33.9968 33.9968 0 0 1-48.128 0z m77.824 77.312a33.9968 33.9968 0 0 1 0-48.128l6.656-6.656 48.128 48.128-6.656 6.656a33.9968 33.9968 0 0 1-48.128 0z m76.8 76.8c-12.288-12.288-13.312-32.256-2.048-45.568 1.024-1.024 2.048-1.536 2.56-2.56l6.144-6.144 47.616 47.616-6.656 6.656c-12.8 13.312-34.304 13.312-47.616 0z m471.552-264.704c-13.312 13.312-35.328 13.312-48.64 0l-43.52-43.52-1.024 1.024-88.064-87.552c-11.264-11.264-30.208-11.264-41.472 0-11.264 11.264-11.264 30.208 0 41.472L808.96 686.08c6.656 6.144 10.24 14.848 10.24 24.064 0 9.216-3.584 17.408-10.24 24.064-13.312 13.312-35.328 13.312-48.64 0l-131.584-131.584c-8.704-8.704-21.504-10.752-32.256-6.144-4.096 1.536-7.68 3.584-10.752 6.656-11.264 11.264-11.264 30.208 0 41.472l131.584 131.584c13.312 13.312 13.312 35.328 0 48.64-6.144 6.656-14.848 10.24-24.064 10.24s-17.408-3.584-24.064-10.24L537.6 693.248c-11.264-11.264-30.208-11.776-41.472 0-11.264 11.264-11.264 30.208 0 41.472l132.096 131.584h0.512l-0.512 0.512c12.8 12.8 12.8 35.328-1.024 49.152-13.312 13.312-35.328 13.312-48.64 0l-1.536-1.536-47.616-36.864-4.608-3.584-395.776-396.8c-43.52-43.008-67.072-100.864-67.072-161.792 0-60.928 24.064-118.784 67.072-161.792 43.008-43.52 100.864-67.072 161.792-67.072 60.928 0 118.784 24.064 161.792 67.072l24.064 24.064-200.704 177.664c-10.24 9.216-15.36 23.04-13.824 36.352 2.048 13.312 9.728 25.088 22.016 31.744 34.816 18.432 101.376 45.568 154.112 15.36 16.384-9.216 35.84-24.064 58.88-41.472 49.664-37.376 132.608-100.352 161.28-73.216l197.12 223.232 44.032 46.592 0.512 0.512c6.656 6.656 10.24 15.36 10.24 24.576 0 9.216-3.584 17.408-10.24 24.064z" p-id="22457"></path></svg>