<?xml version="1.0" standalone="no"?><!DOCTYPE svg PUBLIC "-//W3C//DTD SVG 1.1//EN" "http://www.w3.org/Graphics/SVG/1.1/DTD/svg11.dtd"><svg t="1682423960811" class="icon" viewBox="0 0 1024 1024" version="1.1" xmlns="http://www.w3.org/2000/svg" p-id="11312" xmlns:xlink="http://www.w3.org/1999/xlink" width="256" height="256"><path d="M42.666667 768c0-93.866667 72.533333-170.666667 160-170.666667h360.533333c89.6 0 160 76.8 160 170.666667" opacity=".16" p-id="11313"></path><path d="M213.333333 768m-42.666666 0a42.666667 42.666667 0 1 0 85.333333 0 42.666667 42.666667 0 1 0-85.333333 0Z" p-id="11314"></path><path d="M981.333333 896c-23.466667 0-42.666667-19.2-42.666666-42.666667v-170.666666c0-23.466667-19.2-42.666667-42.666667-42.666667s-42.666667 19.2-42.666667 42.666667v42.666666h-89.6c-19.2-98.133333-100.266667-170.666667-198.4-170.666666h-362.666666c-44.8 0-85.333333 14.933333-117.333334 40.533333v-106.666667L145.066667 426.666667H768v128c0 23.466667 19.2 42.666667 42.666667 42.666666s42.666667-19.2 42.666666-42.666666v-170.666667c0-23.466667-19.2-42.666667-42.666666-42.666667h-170.666667v-128c0-23.466667-19.2-42.666667-42.666667-42.666666s-42.666667 19.2-42.666666 42.666666v128h-53.333334L424.533333 74.666667c-4.266667-19.2-21.333333-32-40.533333-32H128c-23.466667 0-42.666667 19.2-42.666667 42.666666v281.6L12.8 439.466667c-8.533333 8.533333-12.8 19.2-12.8 29.866666v298.666667c0 117.333333 91.733333 213.333333 202.666667 213.333333h360.533333c98.133333 0 181.333333-72.533333 198.4-170.666666H853.333333v42.666666c0 70.4 57.6 128 128 128 23.466667 0 42.666667-19.2 42.666667-42.666666s-19.2-42.666667-42.666667-42.666667zM352 128l61.866667 213.333333H170.666667V128h181.333333z m213.333333 768h-362.666666c-64 0-117.333333-57.6-117.333334-128s53.333333-128 117.333334-128h360.533333c51.2 0 93.866667 36.266667 110.933333 85.333333H384c-23.466667 0-42.666667 19.2-42.666667 42.666667s19.2 42.666667 42.666667 42.666667h292.266667c-17.066667 49.066667-59.733333 85.333333-110.933334 85.333333z" p-id="11315"></path></svg>