<?xml version="1.0" standalone="no"?><!DOCTYPE svg PUBLIC "-//W3C//DTD SVG 1.1//EN" "http://www.w3.org/Graphics/SVG/1.1/DTD/svg11.dtd"><svg t="1685512480393" class="icon" viewBox="0 0 1024 1024" version="1.1" xmlns="http://www.w3.org/2000/svg" p-id="3540" xmlns:xlink="http://www.w3.org/1999/xlink" width="256" height="256"><path d="M989.6 1020H34.4c-8.8 0-16-7.2-16-16v-97.6c0-8.8 7.2-16 16-16h954.4c8.8 0 16 7.2 16 16v97.6c0.8 8.8-6.4 16-15.2 16z m-939.2-32h922.4v-65.6H50.4v65.6z" fill="#303C42" p-id="3541"></path><path d="M651.2 922.4H82.4c-8.8 0-16-7.2-16-16V88.8C66.4 21.6 263.2 4 367.2 4s300.8 17.6 300.8 84.8v818.4c-0.8 8.8-8 15.2-16.8 15.2z m-552.8-32h537.6V88.8c0-16-91.2-52.8-268.8-52.8-177.6 0-268.8 36.8-268.8 52.8v801.6z" fill="#303C42" p-id="3542"></path><path d="M941.6 922.4H651.2c-8.8 0-16-7.2-16-16V468.8c0-4.8 2.4-9.6 6.4-12.8 4-3.2 9.6-4 14.4-2.4l290.4 89.6c6.4 2.4 11.2 8 11.2 15.2v348.8c0 8.8-6.4 15.2-16 15.2z m-274.4-32h258.4V569.6l-258.4-80v400.8z" fill="#303C42" p-id="3543"></path><path d="M867.2 621.6H726.4c-4.8 0-8-3.2-8-8s3.2-8 8-8h140.8c4.8 0 8 3.2 8 8 0 4-4 8-8 8zM867.2 726.4H726.4c-4.8 0-8-3.2-8-8s3.2-8 8-8h140.8c4.8 0 8 3.2 8 8 0 4-4 8-8 8zM867.2 831.2H726.4c-4.8 0-8-3.2-8-8s3.2-8 8-8h140.8c4.8 0 8 3.2 8 8s-4 8-8 8zM245.6 231.2H160c-4.8 0-8-3.2-8-8V138.4c0-4.8 3.2-8 8-8h85.6c4.8 0 8 3.2 8 8V224c0 4-3.2 7.2-8 7.2z m-77.6-16h69.6v-69.6H168v69.6zM409.6 231.2H324c-4.8 0-8-3.2-8-8V138.4c0-4.8 3.2-8 8-8h85.6c4.8 0 8 3.2 8 8V224c0 4-4 7.2-8 7.2z m-77.6-16h69.6v-69.6h-69.6v69.6zM572.8 231.2H488c-4.8 0-8-3.2-8-8V138.4c0-4.8 3.2-8 8-8h85.6c4.8 0 8 3.2 8 8V224c-0.8 4-4 7.2-8.8 7.2z m-76.8-16h69.6v-69.6H496v69.6zM245.6 372.8H160c-4.8 0-8-3.2-8-8V279.2c0-4.8 3.2-8 8-8h85.6c4.8 0 8 3.2 8 8v85.6c0 4.8-3.2 8-8 8z m-77.6-16h69.6v-69.6H168v69.6zM409.6 372.8H324c-4.8 0-8-3.2-8-8V279.2c0-4.8 3.2-8 8-8h85.6c4.8 0 8 3.2 8 8v85.6c0 4.8-4 8-8 8z m-77.6-16h69.6v-69.6h-69.6v69.6zM572.8 372.8H488c-4.8 0-8-3.2-8-8V279.2c0-4.8 3.2-8 8-8h85.6c4.8 0 8 3.2 8 8v85.6c-0.8 4.8-4 8-8.8 8z m-76.8-16h69.6v-69.6H496v69.6zM245.6 514.4H160c-4.8 0-8-3.2-8-8V420.8c0-4.8 3.2-8 8-8h85.6c4.8 0 8 3.2 8 8v85.6c0 4-3.2 8-8 8z m-77.6-16h69.6v-69.6H168v69.6zM409.6 514.4H324c-4.8 0-8-3.2-8-8V420.8c0-4.8 3.2-8 8-8h85.6c4.8 0 8 3.2 8 8v85.6c0 4-4 8-8 8z m-77.6-16h69.6v-69.6h-69.6v69.6zM572.8 514.4H488c-4.8 0-8-3.2-8-8V420.8c0-4.8 3.2-8 8-8h85.6c4.8 0 8 3.2 8 8v85.6c-0.8 4-4 8-8.8 8z m-76.8-16h69.6v-69.6H496v69.6zM245.6 655.2H160c-4.8 0-8-3.2-8-8V561.6c0-4.8 3.2-8 8-8h85.6c4.8 0 8 3.2 8 8v85.6c0 4.8-3.2 8-8 8z m-77.6-16h69.6v-69.6H168v69.6zM409.6 655.2H324c-4.8 0-8-3.2-8-8V561.6c0-4.8 3.2-8 8-8h85.6c4.8 0 8 3.2 8 8v85.6c0 4.8-4 8-8 8z m-77.6-16h69.6v-69.6h-69.6v69.6zM572.8 655.2H488c-4.8 0-8-3.2-8-8V561.6c0-4.8 3.2-8 8-8h85.6c4.8 0 8 3.2 8 8v85.6c-0.8 4.8-4 8-8.8 8z m-76.8-16h69.6v-69.6H496v69.6zM245.6 796.8H160c-4.8 0-8-3.2-8-8V703.2c0-4.8 3.2-8 8-8h85.6c4.8 0 8 3.2 8 8v85.6c0 4.8-3.2 8-8 8z m-77.6-16h69.6v-69.6H168v69.6zM409.6 796.8H324c-4.8 0-8-3.2-8-8V703.2c0-4.8 3.2-8 8-8h85.6c4.8 0 8 3.2 8 8v85.6c0 4.8-4 8-8 8z m-77.6-16h69.6v-69.6h-69.6v69.6zM572.8 796.8H488c-4.8 0-8-3.2-8-8V703.2c0-4.8 3.2-8 8-8h85.6c4.8 0 8 3.2 8 8v85.6c-0.8 4.8-4 8-8.8 8z m-76.8-16h69.6v-69.6H496v69.6z" fill="#303C42" p-id="3544"></path></svg>