<svg viewBox="0 0 24 24" xmlns="http://www.w3.org/2000/svg" fill-rule="evenodd" clip-rule="evenodd" stroke-linejoin="round" stroke-miterlimit="2"><path d="M22.667 0H1.333C.601 0 0 .601 0 1.333v21.334C0 23.399.601 24 1.333 24h11.48v-9.333H9.68V11.08h3.133V8.413a4.373 4.373 0 01-.022-.438c0-2.392 1.969-4.36 4.36-4.36.11 0 .22.004.329.012a22.9 22.9 0 012.787.146v3.24H18.36c-1.507 0-1.787.707-1.787 1.76v2.307h3.574l-.467 3.587h-3.107V24h6.094c.732 0 1.333-.601 1.333-1.333V1.333C24 .601 23.399 0 22.667 0z" fill="#666"/></svg>