<svg viewBox="0 0 24 24" xmlns="http://www.w3.org/2000/svg" fill-rule="evenodd" clip-rule="evenodd" stroke-linejoin="round" stroke-miterlimit="2"><path d="M12 0C8.742 0 8.332.014 7.053.072 5.773.131 4.904.333 4.14.63c-.8.301-1.526.773-2.126 1.383A5.889 5.889 0 00.63 4.139c-.293.763-.5 1.636-.558 2.913C.015 8.329 0 8.742 0 12c0 3.258.014 3.668.072 4.947.059 1.28.261 2.149.558 2.913a5.89 5.89 0 001.383 2.126c.6.61 1.325 1.082 2.126 1.383.762.293 1.636.499 2.913.558C8.329 23.985 8.742 24 12 24c3.258 0 3.668-.014 4.947-.072 1.28-.059 2.149-.261 2.913-.558a6.135 6.135 0 003.51-3.51c.293-.763.5-1.635.558-2.913.058-1.277.072-1.69.072-4.947 0-3.258-.014-3.668-.072-4.947-.059-1.28-.261-2.149-.558-2.913a5.893 5.893 0 00-1.383-2.126A5.89 5.89 0 0019.862.63c-.764-.293-1.636-.5-2.914-.558C15.671.015 15.258 0 12 0zm0 2.162c3.204 0 3.584.013 4.849.07 1.172.053 1.804.25 2.228.414a3.71 3.71 0 011.38.897c.399.387.705.858.898 1.379.164.422.36 1.059.413 2.229.057 1.269.07 1.644.07 4.848 0 3.204-.013 3.584-.07 4.849-.053 1.172-.25 1.805-.413 2.228a3.974 3.974 0 01-2.277 2.279c-.422.164-1.059.36-2.228.413-1.266.057-1.645.07-4.85.07-3.203 0-3.583-.013-4.848-.07-1.171-.053-1.804-.25-2.228-.413a3.713 3.713 0 01-1.38-.898 3.713 3.713 0 01-.899-1.379c-.164-.422-.36-1.059-.413-2.228-.057-1.266-.07-1.645-.07-4.85 0-3.203.013-3.583.07-4.848.053-1.171.25-1.804.413-2.228.193-.522.5-.993.898-1.38a3.713 3.713 0 011.379-.899c.422-.164 1.059-.36 2.229-.413 1.269-.057 1.644-.07 4.848-.07" fill="#666" fill-rule="nonzero"/><path d="M12 16c-2.197 0-4.004-1.807-4.004-4.004 0-2.197 1.807-4.004 4.004-4.004 2.196 0 4.004 1.807 4.004 4.004C16.004 14.193 14.196 16 12 16zm0-10.162a6.162 6.162 0 100 12.325 6.162 6.162 0 000-12.325zm7.846-.243c0 .79-.65 1.438-1.44 1.438-.79 0-1.44-.65-1.44-1.44 0-.789.65-1.439 1.44-1.439.79 0 1.44.65 1.44 1.439v.002z" fill="#666" fill-rule="nonzero"/></svg>