<svg viewBox="0 0 24 24" xmlns="http://www.w3.org/2000/svg" fill-rule="evenodd" clip-rule="evenodd" stroke-linejoin="round" stroke-miterlimit="2"><path d="M11.25 22.501H1.5v-21h9.75a.75.75 0 000-1.5H.75a.75.75 0 00-.75.75v22.5c0 .414.336.75.75.75h10.5a.75.75 0 000-1.5z" fill="#999" fill-rule="nonzero"/><path d="M23.782 11.477l-5.175-5.249a.745.745 0 00-1.06 0 .762.762 0 000 1.071l3.9 3.956H6.002a.754.754 0 00-.75.758c0 .419.336.758.75.758h15.445l-3.9 3.956a.762.762 0 000 1.07.744.744 0 001.06 0l5.175-5.248a.767.767 0 000-1.072z" fill="#999" fill-rule="nonzero"/></svg>