<svg xmlns="http://www.w3.org/2000/svg" viewBox="0 0 153.45 20.98"><path d="M.23 18.05a6.72 6.72 0 004 1.19 3.82 3.82 0 004.11-4.16c0-4-8.37-4.47-8.37-9.79C0 2 2.56 0 5.78 0a9.94 9.94 0 013.58.67L9.07 2.5a6.74 6.74 0 00-3.32-.76c-1.88 0-3.95.88-3.95 3.49 0 4.07 8.37 4.1 8.37 10 0 4.09-3.16 5.72-6 5.72a9.59 9.59 0 01-4.13-.87zM21.47.35h2l7.25 20.28h-1.85l-2-5.43h-9.2l-2 5.43H14zm.89 1.92l-4 11.18h7.93zm12.58 15.78a6.69 6.69 0 004 1.19 3.81 3.81 0 004.1-4.16c0-4-8.36-4.47-8.36-9.79C34.71 2 37.27 0 40.48 0a10 10 0 013.59.67l-.29 1.83a6.74 6.74 0 00-3.32-.76c-1.88 0-4 .88-4 3.49 0 4.07 8.37 4.1 8.37 10 0 4.09-3.17 5.72-6 5.72a9.56 9.56 0 01-4.13-.87zM56.18.35h2l7.24 20.28h-1.84l-2-5.43h-9.17l-2 5.43H48.7zm.89 1.92l-4 11.18H61zm29.74 18.36h-2.14L80 2.62l-4.7 18h-2.19L67.87.35h1.86l4.5 18L79 .35h2.17l4.61 18h.05l4.58-18h1.72zM101.64.35h2l7.24 20.28H109l-2-5.43h-9.13l-2 5.43h-1.71zm.89 1.92l-4 11.18h7.93zm13.1 15.78a6.72 6.72 0 004 1.19 3.82 3.82 0 004.11-4.16c0-4-8.37-4.47-8.37-9.79C115.4 2 118 0 121.18 0a10 10 0 013.58.67l-.29 1.83a6.74 6.74 0 00-3.32-.76c-1.88 0-4 .88-4 3.49 0 4.07 8.37 4.1 8.37 10 0 4.09-3.16 5.72-6 5.72a9.59 9.59 0 01-4.13-.87zM131.87.35h1.81v9h9.23v-9h1.81v20.28h-1.81v-9.56h-9.23v9.56h-1.81zm19.78 0h1.8v20.28h-1.8z" fill="#205e38"/></svg>