<?xml version="1.0" standalone="no"?><!DOCTYPE svg PUBLIC "-//W3C//DTD SVG 1.1//EN" "http://www.w3.org/Graphics/SVG/1.1/DTD/svg11.dtd"><svg t="1685513709445" class="icon" viewBox="0 0 1024 1024" version="1.1" xmlns="http://www.w3.org/2000/svg" p-id="9346" xmlns:xlink="http://www.w3.org/1999/xlink" width="256" height="256"><path d="M245.956679 257.845119a192.672086 192.672086 0 0 1 384.777488 0A185.871894 185.871894 0 0 1 439.76213 442.016965a187.571942 187.571942 0 0 1-193.805451-184.171846zM65.751611 887.996175A373.443836 373.443836 0 0 1 402.361078 515.685704L442.595543 510.018878a249.340346 249.340346 0 0 0 137.13719-37.967735l14.733748-10.766969A258.97395 258.97395 0 0 0 431.261891 0.004533a257.273902 257.273902 0 0 0-249.907029 257.840586 261.807363 261.807363 0 0 0 98.036091 203.439055l18.133843 10.766969-18.133843 7.366874A437.478971 437.478971 0 0 0 0.583111 886.296127 131.470364 131.470364 0 0 0 121.286506 1020.033222H442.595543c10.766969 0 34.000956-17.000478 34.000956-34.000957s-23.233987-34.000956-34.000956-34.000956H122.986554a63.468452 63.468452 0 0 1-57.234943-64.035134z m893.658467-88.969169a107.103012 107.103012 0 0 0-94.069312 107.669695 82.73566 82.73566 0 0 0 7.366874 32.867591l-47.034657 25.500717-18.133843-18.133843a103.702917 103.702917 0 0 0-61.768404-21.533939 119.57003 119.57003 0 0 0-61.768404 21.533939c-7.366874 7.366874-14.733748 10.766969-18.133843 18.133843L623.933976 940.697657a91.235899 91.235899 0 0 0 5.666826-34.000956 108.236377 108.236377 0 0 0-94.069312-107.669695c0-7.366874-3.400096-21.533939-3.400096-36.267687s3.400096-25.500717 3.400096-36.267686a107.103012 107.103012 0 0 0 94.069312-108.803061 80.46893 80.46893 0 0 0-6.800191-32.867591l46.467974-26.067399a73.102056 73.102056 0 0 0 18.133843 15.30043 102.002869 102.002869 0 0 0 56.66826 21.533939 105.969647 105.969647 0 0 0 56.668261-21.533939c7.366874-7.366874 14.733748-10.766969 18.133843-15.30043l47.034656 26.067399a90.669217 90.669217 0 0 0-7.366874 32.867591 109.936425 109.936425 0 0 0 94.069313 108.803061c0 7.366874 3.400096 21.533939 3.400095 36.267686a87.269121 87.269121 0 0 1 3.400096 36.267687z m18.133843-123.536808h-3.400095a56.66826 56.66826 0 0 1-56.668261-56.66826c0-7.366874 3.400096-18.700526 3.400096-21.533939a46.467974 46.467974 0 0 0-13.600383-52.701483L840.406731 510.018878h-18.133843a39.1011 39.1011 0 0 0-32.867591 14.733747 86.135756 86.135756 0 0 1-43.634561 25.500718c-14.733748 0-36.267687-18.133843-47.034656-25.500718a45.901291 45.901291 0 0 0-32.867591-14.733747 20.400574 20.400574 0 0 0-14.733748 3.400095l-68.568595 36.267687a45.334608 45.334608 0 0 0-14.733748 51.001434 88.969169 88.969169 0 0 1 3.400096 22.100622 56.66826 56.66826 0 0 1-56.668261 56.66826H510.597455a39.1011 39.1011 0 0 0-32.867591 32.867591 308.84202 308.84202 0 0 0-7.366874 56.668261 150.17089 150.17089 0 0 0 7.366874 56.66826 38.534417 38.534417 0 0 0 32.867591 32.867591h3.400096a56.66826 56.66826 0 0 1 56.66826 56.668261c0 7.366874-3.400096 18.133843-3.400095 21.533939a44.767926 44.767926 0 0 0 14.733747 51.001434l64.601817 36.267687a36.834369 36.834369 0 0 1 18.133844-3.400096 39.1011 39.1011 0 0 0 32.867591-14.733747c7.366874-7.366874 28.900813-28.900813 47.034656-28.900813a80.46893 80.46893 0 0 1 47.034656 28.900813 45.901291 45.901291 0 0 0 32.867591 14.733747 34.567639 34.567639 0 0 0 18.133844-3.400095l64.601816-40.234465a45.334608 45.334608 0 0 0 14.733748-51.001435 96.902725 96.902725 0 0 1-2.833413-21.533939 56.66826 56.66826 0 0 1 56.668261-56.66826h3.400095a39.1011 39.1011 0 0 0 32.867591-32.867591 259.540633 259.540633 0 0 0 7.366874-56.668261 221.572898 221.572898 0 0 1-10.200287-51.001434 38.534417 38.534417 0 0 0-31.734226-31.734226z m-231.773185 134.303777a47.034656 47.034656 0 1 1 47.034656-47.034656 47.601339 47.601339 0 0 1-47.034656 47.034656z m18.133844-145.070746a99.169456 99.169456 0 0 0-116.169934 119.570029 100.869504 100.869504 0 0 0 79.902247 79.902247 98.036091 98.036091 0 0 0 116.169934-116.169933 100.302821 100.302821 0 0 0-79.902247-83.302343z" fill="#ffffff" p-id="9347"></path></svg>