<svg viewBox="0 0 24 24" xmlns="http://www.w3.org/2000/svg" fill-rule="evenodd" clip-rule="evenodd" stroke-linejoin="round" stroke-miterlimit="2"><path d="M7.5 3.1a5.292 5.292 0 013.552 1.366l.916.82.915-.82a5.277 5.277 0 013.54-1.366c2.92.002 5.324 2.407 5.324 5.328a5.33 5.33 0 01-1.322 3.512l-8.457 8.471L3.55 11.94a5.33 5.33 0 01-1.32-3.512c0-2.9 2.369-5.296 5.27-5.328m0-1.367h-.007C3.827 1.733.812 4.75.812 8.415c0 1.642.605 3.23 1.7 4.454l9.456 9.469 9.455-9.47a6.68 6.68 0 001.765-4.524c0-3.666-3.015-6.682-6.681-6.682a6.683 6.683 0 00-4.54 1.78A6.713 6.713 0 007.5 1.732" fill="#999" fill-rule="nonzero" stroke="#999" stroke-width=".997"/></svg>